<?xml version="1.0" encoding="utf-8"?>
<!-- Generator: Adobe Illustrator 26.0.3, SVG Export Plug-In . SVG Version: 6.00 Build 0)  -->
<svg version="1.1" id="Layer_1" xmlns="http://www.w3.org/2000/svg" xmlns:xlink="http://www.w3.org/1999/xlink" x="0px" y="0px"
	 viewBox="0 0 512 512" enable-background="new 0 0 512 512" xml:space="preserve">
<g>
	<g>
		<circle fill="#9B5107" cx="257.4" cy="256" r="166"/>
		<path d="M257.4,97c42.5,0,82.4,16.5,112.4,46.6c30,30,46.6,70,46.6,112.4s-16.5,82.4-46.6,112.4c-30,30-70,46.6-112.4,46.6
			S175,398.4,145,368.4c-30-30-46.6-70-46.6-112.4s16.5-82.4,46.6-112.4C175,113.6,214.9,97,257.4,97 M257.4,83.1
			c-95.5,0-172.9,77.4-172.9,172.9s77.4,172.9,172.9,172.9S430.3,351.5,430.3,256S352.9,83.1,257.4,83.1L257.4,83.1z"/>
	</g>
	<g>
		<circle fill="#FFFFFF" cx="184.9" cy="229.1" r="36.1"/>
		<path d="M184.9,193.7c19.5,0,35.4,15.9,35.4,35.4s-15.9,35.4-35.4,35.4s-35.4-15.9-35.4-35.4S165.4,193.7,184.9,193.7
			 M184.9,192.2c-20.4,0-36.9,16.5-36.9,36.9s16.5,36.9,36.9,36.9s36.9-16.5,36.9-36.9S205.3,192.2,184.9,192.2L184.9,192.2z"/>
	</g>
	<g>
		<g>
			<path d="M292.8,280.5c0,20.4-16.5,49.3-36.9,49.3S219,300.9,219,280.5s16.5-24.5,36.9-24.5S292.8,260.1,292.8,280.5z"/>
		</g>
		<path fill="none" stroke="#000000" stroke-width="15.4843" stroke-miterlimit="10" d="M255.9,304.4v47.9
			c0,20.4-16.5,36.9-36.9,36.9c-20.4,0-36.9-16.5-36.9-36.9c0-0.4,0-0.8,0-1.3 M255.9,304.4v47.9c0,20.4,16.5,36.9,36.9,36.9
			c20.4,0,36.9-16.5,36.9-36.9c0-0.4,0-0.8,0-1.3"/>
	</g>
	<g>
		<circle fill="#FFFFFF" cx="321.7" cy="229.1" r="36.1"/>
		<path d="M321.7,193.7c19.5,0,35.4,15.9,35.4,35.4s-15.9,35.4-35.4,35.4c-19.5,0-35.4-15.9-35.4-35.4S302.2,193.7,321.7,193.7
			 M321.7,192.2c-20.4,0-36.9,16.5-36.9,36.9s16.5,36.9,36.9,36.9s36.9-16.5,36.9-36.9S342.1,192.2,321.7,192.2L321.7,192.2z"/>
	</g>
	<g>
		<circle cx="204.8" cy="233" r="15"/>
	</g>
	<g>
		<circle cx="299.8" cy="233" r="15"/>
	</g>
	<ellipse transform="matrix(0.2695 -0.963 0.963 0.2695 -164.7065 248.9024)" cx="81.7" cy="233" rx="126.4" ry="54.9"/>
	<ellipse transform="matrix(0.963 -0.2695 0.2695 0.963 -46.8749 124.579)" cx="430.3" cy="233" rx="54.9" ry="126.4"/>
</g>
</svg>
